<svg xmlns="http://www.w3.org/2000/svg"><defs><font id="fontello" horiz-adv-x="1000"><font-face font-family="fontello" font-weight="400" ascent="850" descent="-150"/><glyph glyph-name="home" unicode="" d="M888 336q16-16 11-27t-27-11h-84V-12q0-14-1-21t-8-13-23-6H552v310H348V-52H154q-28 0-35 10t-7 30v310H28q-22 0-27 11t11 27l400 402q16 16 38 16t38-16z" horiz-adv-x="900"/><glyph glyph-name="basket" unicode="" d="M150 0q0 40 30 70t70 30q42 0 71-30t29-70q0-42-29-71t-71-29q-40 0-70 29T150 0zm500 0q0 40 30 70t70 30q42 0 71-30t29-70q0-42-29-71t-71-29q-40 0-70 29T650 0zM328 236q-36-10-34-23t44-13h562v-76q0-20-20-20H226q-20 0-20 20v76l-10 46-98 454H0v80q0 20 20 20h156q20 0 20-20v-86h704V420q0-22-18-26z" horiz-adv-x="900"/><glyph glyph-name="edit" unicode="" d="M496 189l64 65-85 85-64-65v-31h53v-54h32zm245 402q-9 9-18 0L527 395q-9-9 0-18t18 0l196 196q9 9 0 18zm45-331V154q0-67-47-114T625-7H161Q94-7 47 40T0 154v464q0 66 47 113t114 48h464q35 0 65-14 9-4 10-13 2-10-5-16l-27-28q-8-8-18-4-13 3-25 3H161q-37 0-63-26t-27-63V154q0-37 27-63t63-27h464q37 0 63 27t26 63v70q0 7 5 12l36 36q8 8 20 4t11-16zm-54 411l161-160-375-375H357v160zm248-73l-51-52-161 161 51 52q16 15 38 15t38-15l85-85q16-16 16-38t-16-38z" horiz-adv-x="1000"/><glyph glyph-name="group" unicode="" d="M0 106v134q0 26 18 32l171 80q-66 39-68 131 0 56 35 103 37 41 90 43 31 0 63-19-49-125 23-237-12-11-25-19l-114-55q-48-23-52-84V72H27Q2 72 0 106zm193-59v168q0 27 22 37l152 70 57 28q-37 23-60 66t-22 94q0 76 46 130t110 54 109-54 45-130q0-105-78-158l61-30 146-70q24-10 24-37V47q-2-37-37-41H227q-14 2-24 14t-10 27zm473 330q68 106 22 231 31 19 66 21 49 0 90-43 35-41 35-103 0-82-65-131l168-80q18-10 18-32V106q0-32-27-34H855v143q0 57-50 84l-110 53q-15 8-29 25z" horiz-adv-x="1000"/><glyph glyph-name="trophy" unicode="" d="M510 134V68q70-8 116-32t46-56q0-36-65-63t-157-27q-90 0-156 27t-66 63q0 32 46 56t118 32v66q0 50-33 84t-113 88q-56 36-87 61t-75 72-64 108T0 684q0 14 11 24t25 10h172q48 92 242 92 196 0 244-92h170q14 0 25-10t11-24q0-76-20-137t-64-108-75-72-87-61q-78-52-111-87t-33-85zm138 252q80 56 126 114t54 148H702q-6-158-54-262zM450 750q-62 0-108-15t-64-32-18-29q0-14 18-31t64-32 108-15 108 15 64 32 18 31q0 12-18 29t-64 32-108 15zM72 648q8-90 54-148t126-114q-48 104-54 262H72z" horiz-adv-x="900"/><glyph glyph-name="info-circled" unicode="" d="M454 810q190 2 326-130t140-322q2-190-131-327T466-110q-190-2-327 131T0 344q-4 190 130 327t324 139zm52-152q-42 0-65-24t-23-50q-2-28 15-44t49-16q38 0 61 22t23 54q0 58-60 58zM386 64q30 0 84 26t106 78l-18 24q-48-36-72-36-14 0-4 38l42 160q26 96-22 96-30 0-89-29t-115-75l16-26q52 34 74 34 12 0 0-34l-36-152Q326 64 386 64z" horiz-adv-x="920"/><glyph glyph-name="mail" unicode="" d="M30 586q-32 18-28 40 2 14 26 14h846q38 0 20-32-8-14-24-22-14-6-192-102t-182-98q-16-10-46-10-28 0-46 10-4 2-182 98T30 586zm850-100q20 10 20-10V108q0-16-17-32t-33-16H50q-16 0-33 16T0 108v368q0 20 20 10l384-200q18-10 46-10t46 10z" horiz-adv-x="900"/><glyph glyph-name="phone" unicode="" d="M0 615q0 50 28 76l138 138q45 37 77-13l113-211q18-39-14-71l-51-52q-5-6-5-14 25-98 132-195l31-30 36-34 34-26 41-25 40-14q20-6 27 2l61 60q39 30 72 12L963 97q22-14 25-37t-13-39L834-118q-27-27-74-27-140 4-318 121Q184 161 67 382-5 533 0 615z" horiz-adv-x="988"/><glyph glyph-name="location" unicode="" d="M0 473q0 156 110 267t267 110 267-110 110-267q0-123-53-193L377-150 53 280Q0 350 0 473zm219 0q0-66 46-112t112-46 112 46 46 112-46 112-112 46-112-46-46-112z" horiz-adv-x="754"/><glyph glyph-name="plus" unicode="" d="M786 439V332q0-22-16-38t-38-15H500V46q0-22-16-37T446-7H339q-22 0-38 16t-15 37v233H54q-23 0-38 15T0 332v107q0 23 16 38t38 16h232v232q0 22 15 38t38 16h107q23 0 38-16t16-38V493h232q23 0 38-16t16-38z" horiz-adv-x="785.7"/><glyph glyph-name="ok" unicode="" d="M933 534q0-22-16-38L513 92l-76-76Q421 1 399 1t-38 15l-76 76L83 294q-15 16-15 38t15 38l76 76q16 16 38 16t38-16l164-165 366 367q16 16 38 16t38-16l76-76q16-15 16-38z" horiz-adv-x="1000"/><glyph glyph-name="right-open" unicode="" d="M618 361L204-54q-11-10-25-10t-25 10L61 39Q50 50 50 64t11 25l296 297L61 682q-11 11-11 25t11 25l93 93q10 11 25 11t25-11l414-414q10-11 10-25t-10-25z" horiz-adv-x="714.3"/><glyph glyph-name="left-open" unicode="" d="M654 682L357 386 654 89q10-10 10-25t-10-25l-93-93q-11-10-25-10t-25 10L97 361q-11 10-11 25t11 25l414 414q10 11 25 11t25-11l93-93q10-10 10-25t-10-25z" horiz-adv-x="714.3"/><glyph glyph-name="videocam" unicode="" d="M1000 654V46q0-23-22-32-7-3-14-3-15 0-25 10L714 246v-92q0-67-47-114T554-7H161Q94-7 47 40T0 154v392q0 67 47 114t114 47h393q66 0 113-47t47-114v-92l225 225q10 10 25 10 7 0 14-2 22-10 22-33z" horiz-adv-x="1000"/><glyph glyph-name="heart-empty" unicode="" d="M929 517q0 46-12 80t-31 55-46 33-52 18-55 4-62-14-62-36-48-40-34-34q-10-13-27-13t-27 13q-14 15-34 34t-48 40-62 36-62 14-55-4-52-18-46-33-31-55-12-80q0-93 105-198L500 7l324 312q105 105 105 198zm71 0q0-123-128-251L525-69q-10-10-25-10t-25 10L127 267l-15 15q-10 10-31 37t-38 54-30 67-13 77q0 123 71 192t196 70q34 0 70-12t67-33 54-38 42-38q20 20 42 38t54 38 67 33 70 12q125 0 196-70t71-192z" horiz-adv-x="1000"/><glyph glyph-name="clock" unicode="" d="M500 546V296q0-7-5-12t-13-5H304q-8 0-13 5t-5 12v36q0 8 5 13t13 5h125v196q0 8 5 13t12 5h36q8 0 13-5t5-13zm232-196q0 83-41 152T581 613t-152 41-153-41-110-111-41-152 41-152T276 87t153-41 152 41 110 111 41 152zm125 0q0-117-57-215T644-21 429-79 213-21 58 135 0 350t58 215 155 156 216 58 215-58 156-156 57-215z" horiz-adv-x="857.1"/><glyph glyph-name="export" unicode="" d="M750 60v56l100 82V10q0-20-15-35t-35-15H50q-20 0-35 15T0 10v550q0 22 14 36t36 14h288q-32-24-59-49t-39-39l-10-12H100V60h650zm-82 348q-166 0-242-41T266 186q0 8 1 22t9 56 22 79 44 83 70 79 107 56 149 23v156l332-250-332-260v178z" horiz-adv-x="1000"/><glyph glyph-name="camera" unicode="" d="M536 475q66 0 113-47t47-114-47-113-113-47-114 47-47 113 47 114 114 47zm393 232q59 0 101-42t41-101V64q0-59-41-101T929-79H143Q84-79 42-37T0 64v500q0 59 42 101t101 42h125l28 76q11 27 39 47t58 20h286q29 0 57-20t39-47l29-76h125zM536 64q103 0 176 74t74 176-74 177-176 73-177-73-73-177 73-176 177-74z" horiz-adv-x="1071.4"/><glyph glyph-name="heart" unicode="" d="M500-79q-14 0-25 10L127 267l-15 15q-10 10-31 37t-38 54-30 67-13 77q0 123 71 192t196 70q34 0 70-12t67-33 54-38 42-38q20 20 42 38t54 38 67 33 70 12q125 0 196-70t71-192q0-123-128-251L525-69q-10-10-25-10z" horiz-adv-x="1000"/><glyph glyph-name="doc-text-inv" unicode="" d="M600 800q42 0 71-29t29-71V0q0-40-29-70t-71-30H100q-40 0-70 30T0 0v700q0 42 30 71t70 29h500zM140 592v-88h420v88H140zm420-480v88H140v-88h420zm0 196v90H142v-90h418z" horiz-adv-x="700"/><glyph glyph-name="eye" unicode="" d="M500 630q92 0 177-25t141-62 99-77 63-71 20-45-20-44-63-71-99-78-141-62-177-25-177 25-141 62-99 78-63 71-20 44 20 45 63 71 99 77 141 62 177 25zm0-494q92 0 157 63t65 151q0 90-65 153t-157 63-157-63-65-153q0-88 65-151t157-63zm0 214q8-8 37-2t50 11 25-9q0-44-33-75t-79-31-78 31-32 75q0 46 32 77t78 31q14 0 10-23t-12-47 2-38z" horiz-adv-x="1000"/><glyph glyph-name="chat" unicode="" d="M85 749h608c57 0 83-26 83-85V277c0-55-26-82-83-82H419L116-49l63 244H85c-57 0-85 27-85 84v385c0 59 28 86 85 85zm75-157v-83h456v83H160zm456-239v82H160v-82h456z" horiz-adv-x="776"/><glyph glyph-name="search" unicode="" d="M643 386q0 103-73 176t-177 74-177-74-73-176 73-177 177-73 177 73 73 177zM929-79q0-29-22-50t-50-21q-30 0-50 21L616 62Q516-7 393-7q-80 0-153 31t-125 84-84 125T0 386t31 152 84 126 125 84 153 31 153-31 125-84 84-126 31-152q0-123-69-223L908-28q21-21 21-51z" horiz-adv-x="928.6"/><glyph glyph-name="user" unicode="" d="M0-150V6q0 24 58 58t159 71q99 35 137 73t37 101q0 29-27 72t-32 59q-12 35-29 135-10 52-14 93-2 22 6 50t28 60 67 52 110 20 110-20 67-52 28-60 6-50q-4-41-14-93-17-100-29-135-6-16-32-59t-27-72q0-64 37-101t137-73q217-80 217-129v-156H0z" horiz-adv-x="1000"/><glyph glyph-name="rss" unicode="" d="M214 100q0-45-31-76T107-7 31 24 0 100t31 76 76 31 76-31 31-76zm286-69q1-15-9-26-10-12-27-12h-75q-14 0-24 9t-11 23q-12 128-103 219T32 347q-14 1-23 11t-9 24v75q0 16 12 26 9 10 24 10h3q89-7 170-45t145-101q63-63 101-145t45-171zm286-1q1-15-10-26-10-11-26-11h-80q-14 0-25 10t-10 23q-7 120-57 228T449 442 261 571 34 628q-14 1-24 11T0 663v80q0 16 11 26 10 10 25 10h1q147-8 280-67t238-164q104-104 164-238t67-280z" horiz-adv-x="785.7"/><glyph glyph-name="menu" unicode="" d="M857 100V29q0-15-10-25T821-7H36Q21-7 11 4T0 29v71q0 15 11 25t25 11h785q15 0 26-11t10-25zm0 286v-72q0-14-10-25t-26-10H36q-15 0-25 10T0 314v72q0 14 11 25t25 10h785q15 0 26-10t10-25zm0 285v-71q0-14-10-25t-26-11H36q-15 0-25 11T0 600v71q0 15 11 26t25 10h785q15 0 26-10t10-26z" horiz-adv-x="857.1"/><glyph glyph-name="angle-double-down" unicode="" d="M600 368q0-7-6-13L334 95q-5-6-13-6t-12 6L49 355q-6 6-6 13t6 13l28 28q5 5 12 5t13-5l219-220 220 220q5 5 13 5t12-5l28-28q6-6 6-13zm0 214q0-7-6-13L334 309q-5-5-13-5t-12 5L49 569q-6 6-6 13t6 13l28 28q5 6 12 6t13-6l219-219 220 219q5 6 13 6t12-6l28-28q6-6 6-13z" horiz-adv-x="642.9"/><glyph glyph-name="quote-right" unicode="" d="M429 671V279q0-58-23-111t-61-91-91-61T143-7h-36Q93-7 82 4T71 29v71q0 15 11 25t25 11h36q59 0 101 42t42 101v17q0 23-16 38t-38 16H107q-44 0-76 31T0 457v214q0 45 31 76t76 32h214q45 0 76-32t32-76zm500 0V279q0-58-23-111t-61-91-91-61T643-7h-36q-14 0-25 11t-11 25v71q0 15 11 25t25 11h36q59 0 101 42t42 101v17q0 23-16 38t-38 16H607q-44 0-76 31t-31 76v214q0 45 31 76t76 32h214q45 0 76-32t32-76z" horiz-adv-x="928.6"/><glyph glyph-name="pinterest" unicode="" d="M0 517q0 60 21 113t58 93 85 69 103 44 113 14q88 0 164-37t123-108 47-160q0-54-10-105t-34-99-56-83-80-58-106-21q-38 0-75 18t-54 49q-5-22-15-63t-14-53-11-40-15-39-17-35-26-44-35-48l-7-3-5 6q-9 88-9 105 0 51 12 115t37 161 29 113q-18 36-18 94 0 47 29 87t74 41q34 0 53-23t19-57q0-37-24-106t-25-105q0-35 25-58t61-23q31 0 57 14t44 38 31 53 21 61 11 62 4 56q0 96-61 150t-160 54q-111 0-186-72t-75-183q0-25 7-48t15-36 15-26 7-17q0-15-8-40t-21-25q-1 0-9 1-29 9-51 31t-34 53-18 60-6 60z" horiz-adv-x="714.3"/><glyph glyph-name="facebook-1" unicode="" d="M124-150v469H0v169h124v145c0 113 73 217 242 217 69 0 119-7 119-7l-4-157H373c-60 0-70-28-70-74V488h183l-8-169H303v-469H124" horiz-adv-x="486"/><glyph glyph-name="twitter-bird" unicode="" d="M1231 732q-51-77-126-131 1-14 1-32 0-102-30-203-29-102-90-195Q925 79 841 7T640-107q-118-43-253-43Q177-150 0-37q31-3 60-3 176 0 314 108-82 2-147 51-64 49-89 125 24-5 48-5 34 0 66 9-87 17-145 87-57 69-57 160v4q53-30 114-32-52 34-82 90-30 55-30 120 0 68 34 127 95-117 230-186 135-70 290-78-6 28-6 58 0 104 74 178t178 74q110 0 185-80 85 17 160 62-29-91-111-140 76 9 145 40z" horiz-adv-x="1231"/><glyph glyph-name="gplus" unicode="" d="M48 572q0 58 25 102t56 65 69 34 56 15 26 2h230v-4q0-22-78-36-28 0-38-6 40-20 54-56t14-96q0-102-68-158-38-38-38-54 0-18 50-64 104-90 104-178Q510-2 394-56q-68-34-150-34h-4l-4 2q-2-2-4-2-24 0-54 5t-75 21T29-7 0 96q0 60 32 101t83 57 88 22 71 6h2q-16 22-24 47t-8 39l2 14h-14q-64 0-110 30-74 44-74 160zm370-452q-4 52-43 84t-103 32h-16q-64-2-114-46-46-42-42-94t53-80T272-8q68 4 109 40t37 88zm-60 500q-30 108-122 108-12 0-20-2-40-12-58-62-16-50-2-106 14-52 47-85t71-33q12 0 18 2 42 12 63 65t3 113zm388-174h150v-94H746V202h-94v150H502v94h150v150h94V446z" horiz-adv-x="896"/><glyph glyph-name="linkedin" unicode="" d="M204 698q0-40-29-68t-75-28q-44 0-72 28T0 698q0 42 28 69t74 27 73-27 29-69zM6-92v618h192V-92H6zm306 420q0 86-4 198h166l10-86h4q60 100 190 100 100 0 161-67t61-199V-92H708v342q0 134-98 134-70 0-98-72-6-12-6-48V-92H312v420z" horiz-adv-x="900"/></font>
</defs>
</svg>
